<mxfile host="65bd71144e">
    <diagram id="" name="Page-1">
        <mxGraphModel dx="3891" dy="3949" grid="1" gridSize="10" guides="1" tooltips="1" connect="1" arrows="1" fold="1" page="1" pageScale="1" pageWidth="827" pageHeight="1169" math="1" shadow="0">
            <root>
                <mxCell id="0"/>
                <mxCell id="1" parent="0"/>
                <mxCell id="2" value="" style="rounded=1;whiteSpace=wrap;html=1;fontSize=51;fontFamily=Times New Roman;fillColor=#fad7ac;strokeColor=default;fontColor=#000000;strokeWidth=3;" parent="1" vertex="1">
                    <mxGeometry width="31.102999999976788" height="100" as="geometry"/>
                </mxCell>
                <mxCell id="3" value="" style="rounded=1;whiteSpace=wrap;html=1;fontSize=51;fontFamily=Times New Roman;fillColor=#fad7ac;strokeColor=default;fontColor=#000000;strokeWidth=3;" parent="1" vertex="1">
                    <mxGeometry x="105.31099999999682" width="51.67899999980463" height="100" as="geometry"/>
                </mxCell>
                <mxCell id="4" value="" style="rounded=1;whiteSpace=wrap;html=1;fontSize=51;fontFamily=Times New Roman;fillColor=#fad7ac;strokeColor=default;fontColor=#000000;strokeWidth=3;" parent="1" vertex="1">
                    <mxGeometry x="157.43800000000974" width="32.19199999993094" height="100" as="geometry"/>
                </mxCell>
                <mxCell id="5" value="" style="rounded=1;whiteSpace=wrap;html=1;fontSize=51;fontFamily=Times New Roman;fillColor=#fad7ac;strokeColor=default;fontColor=#000000;strokeWidth=3;" parent="1" vertex="1">
                    <mxGeometry x="190.14200000011527" width="32.446999999713455" height="100" as="geometry"/>
                </mxCell>
                <mxCell id="6" value="" style="rounded=1;whiteSpace=wrap;html=1;fontSize=51;fontFamily=Times New Roman;fillColor=#fad7ac;strokeColor=default;fontColor=#000000;strokeWidth=3;" parent="1" vertex="1">
                    <mxGeometry x="297.4359999998733" width="50.68799999996543" height="100" as="geometry"/>
                </mxCell>
                <mxCell id="7" value="" style="rounded=1;whiteSpace=wrap;html=1;fontSize=51;fontFamily=Times New Roman;fillColor=#fad7ac;strokeColor=default;fontColor=#000000;strokeWidth=3;" parent="1" vertex="1">
                    <mxGeometry x="349.3080000001037" width="32.4149999997303" height="100" as="geometry"/>
                </mxCell>
                <mxCell id="8" value="" style="rounded=1;whiteSpace=wrap;html=1;fontSize=51;fontFamily=Times New Roman;fillColor=#fad7ac;strokeColor=default;fontColor=#000000;strokeWidth=3;" parent="1" vertex="1">
                    <mxGeometry x="382.2030000000254" width="32.159999999947786" height="100" as="geometry"/>
                </mxCell>
                <mxCell id="9" value="" style="rounded=1;whiteSpace=wrap;html=1;fontSize=51;fontFamily=Times New Roman;fillColor=#fad7ac;strokeColor=default;fontColor=#000000;strokeWidth=3;" parent="1" vertex="1">
                    <mxGeometry x="490.8100000000637" width="49.66400000006033" height="100" as="geometry"/>
                </mxCell>
                <mxCell id="10" value="" style="rounded=1;whiteSpace=wrap;html=1;fontSize=51;fontFamily=Times New Roman;fillColor=#fad7ac;strokeColor=default;fontColor=#000000;strokeWidth=3;" parent="1" vertex="1">
                    <mxGeometry x="541.4980000000292" width="32.31899999978083" height="100" as="geometry"/>
                </mxCell>
                <mxCell id="11" value="" style="rounded=1;whiteSpace=wrap;html=1;fontSize=51;fontFamily=Times New Roman;fillColor=#fad7ac;strokeColor=default;fontColor=#000000;strokeWidth=3;" parent="1" vertex="1">
                    <mxGeometry x="574.3929999999509" width="32.12799999996463" height="100" as="geometry"/>
                </mxCell>
                <mxCell id="12" value="" style="rounded=1;whiteSpace=wrap;html=1;fontSize=51;fontFamily=Times New Roman;fillColor=#fad7ac;strokeColor=default;fontColor=#000000;strokeWidth=3;" parent="1" vertex="1">
                    <mxGeometry x="681.3039999999937" width="49.98299999980915" height="100" as="geometry"/>
                </mxCell>
                <mxCell id="13" value="" style="rounded=1;whiteSpace=wrap;html=1;fontSize=51;fontFamily=Times New Roman;fillColor=#fad7ac;strokeColor=default;fontColor=#000000;strokeWidth=3;" parent="1" vertex="1">
                    <mxGeometry x="732.7909999998994" width="33.79199999997695" height="100" as="geometry"/>
                </mxCell>
                <mxCell id="14" value="" style="rounded=1;whiteSpace=wrap;html=1;fontSize=51;fontFamily=Times New Roman;fillColor=#fad7ac;strokeColor=default;fontColor=#000000;strokeWidth=3;" parent="1" vertex="1">
                    <mxGeometry x="767.1590000000173" width="31.45499999979151" height="100" as="geometry"/>
                </mxCell>
                <mxCell id="15" value="" style="rounded=1;whiteSpace=wrap;html=1;fontSize=51;fontFamily=Times New Roman;fillColor=#fad7ac;strokeColor=default;fontColor=#000000;strokeWidth=3;" parent="1" vertex="1">
                    <mxGeometry x="874.5499999998074" width="50.239000000118494" height="100" as="geometry"/>
                </mxCell>
                <mxCell id="16" value="" style="rounded=1;whiteSpace=wrap;html=1;fontSize=51;fontFamily=Times New Roman;fillColor=#fad7ac;strokeColor=default;fontColor=#000000;strokeWidth=3;" parent="1" vertex="1">
                    <mxGeometry x="925.4290000000332" width="32.12799999996463" height="100" as="geometry"/>
                </mxCell>
                <mxCell id="17" value="" style="rounded=1;whiteSpace=wrap;html=1;fontSize=51;fontFamily=Times New Roman;fillColor=#fad7ac;strokeColor=default;fontColor=#000000;strokeWidth=3;" parent="1" vertex="1">
                    <mxGeometry x="958.0689999997282" width="32.80000000005501" height="100" as="geometry"/>
                </mxCell>
                <mxCell id="18" value="" style="rounded=1;whiteSpace=wrap;html=1;fontSize=51;fontFamily=Times New Roman;fillColor=#fad7ac;strokeColor=default;fontColor=#000000;strokeWidth=3;" parent="1" vertex="1">
                    <mxGeometry x="1067.0589999999258" width="48.47999999979535" height="100" as="geometry"/>
                </mxCell>
                <mxCell id="19" value="" style="rounded=1;whiteSpace=wrap;html=1;fontSize=51;fontFamily=Times New Roman;fillColor=#fad7ac;strokeColor=default;fontColor=#000000;strokeWidth=3;" parent="1" vertex="1">
                    <mxGeometry x="1116.9149999998851" width="32.4790000001407" height="100" as="geometry"/>
                </mxCell>
                <mxCell id="20" value="" style="rounded=1;whiteSpace=wrap;html=1;fontSize=51;fontFamily=Times New Roman;fillColor=#fad7ac;strokeColor=default;fontColor=#000000;strokeWidth=3;" parent="1" vertex="1">
                    <mxGeometry x="1149.873999999773" width="32.57600000017291" height="100" as="geometry"/>
                </mxCell>
                <mxCell id="21" value="" style="rounded=1;whiteSpace=wrap;html=1;fontSize=51;fontFamily=Times New Roman;fillColor=#fad7ac;strokeColor=default;fontColor=#000000;strokeWidth=3;" parent="1" vertex="1">
                    <mxGeometry x="1258.992999999986" width="49.27999999981836" height="100" as="geometry"/>
                </mxCell>
                <mxCell id="22" value="" style="rounded=1;whiteSpace=wrap;html=1;fontSize=51;fontFamily=Times New Roman;fillColor=#fad7ac;strokeColor=default;fontColor=#000000;strokeWidth=3;" parent="1" vertex="1">
                    <mxGeometry x="1309.776999999901" width="32.254999999814515" height="100" as="geometry"/>
                </mxCell>
                <mxCell id="23" value="" style="rounded=1;whiteSpace=wrap;html=1;fontSize=51;fontFamily=Times New Roman;fillColor=#fad7ac;strokeColor=default;fontColor=#000000;strokeWidth=3;" parent="1" vertex="1">
                    <mxGeometry x="1342.511999999907" width="32.38399999982988" height="100" as="geometry"/>
                </mxCell>
                <mxCell id="24" value="" style="rounded=1;whiteSpace=wrap;html=1;fontSize=51;fontFamily=Times New Roman;fillColor=#fad7ac;strokeColor=default;fontColor=#000000;strokeWidth=3;" parent="1" vertex="1">
                    <mxGeometry x="1450.9910000000125" width="49.88699999985968" height="100" as="geometry"/>
                </mxCell>
                <mxCell id="25" value="" style="rounded=1;whiteSpace=wrap;html=1;fontSize=51;fontFamily=Times New Roman;fillColor=#fad7ac;strokeColor=default;fontColor=#000000;strokeWidth=3;" parent="1" vertex="1">
                    <mxGeometry x="1501.3580000000636" width="33.951999999892735" height="100" as="geometry"/>
                </mxCell>
                <mxCell id="26" value="" style="rounded=1;whiteSpace=wrap;html=1;fontSize=51;fontFamily=Times New Roman;fillColor=#fad7ac;strokeColor=default;fontColor=#000000;strokeWidth=3;" parent="1" vertex="1">
                    <mxGeometry x="1535.7900000001478" width="31.00799999966597" height="100" as="geometry"/>
                </mxCell>
                <mxCell id="27" value="" style="rounded=1;whiteSpace=wrap;html=1;fontSize=51;fontFamily=Times New Roman;fillColor=#fad7ac;strokeColor=default;fontColor=#000000;strokeWidth=3;" parent="1" vertex="1">
                    <mxGeometry x="1612.3329999997438" width="36.22400000002912" height="100" as="geometry"/>
                </mxCell>
                <mxCell id="28" value="" style="rounded=1;whiteSpace=wrap;html=1;fontSize=51;fontFamily=Times New Roman;fillColor=#fad7ac;strokeColor=default;fontColor=#000000;strokeWidth=3;" parent="1" vertex="1">
                    <mxGeometry x="1649.1329999999139" width="4.896000000087497" height="100" as="geometry"/>
                </mxCell>
                <mxCell id="29" value="" style="rounded=1;whiteSpace=wrap;html=1;fontSize=51;fontFamily=Times New Roman;fillColor=#b0e3e6;strokeColor=default;fontColor=#000000;strokeWidth=3;" parent="1" vertex="1">
                    <mxGeometry x="23.743999999936705" y="100" width="182.87799999994192" height="100" as="geometry"/>
                </mxCell>
                <mxCell id="30" value="" style="rounded=1;whiteSpace=wrap;html=1;fontSize=51;fontFamily=Times New Roman;fillColor=#b0e3e6;strokeColor=default;fontColor=#000000;strokeWidth=3;" parent="1" vertex="1">
                    <mxGeometry x="217.08500000006126" y="100" width="183.67799999996492" height="100" as="geometry"/>
                </mxCell>
                <mxCell id="31" value="" style="rounded=1;whiteSpace=wrap;html=1;fontSize=51;fontFamily=Times New Roman;fillColor=#b0e3e6;strokeColor=default;fontColor=#000000;strokeWidth=3;" parent="1" vertex="1">
                    <mxGeometry x="408.44299999998054" y="100" width="187.1979999998885" height="100" as="geometry"/>
                </mxCell>
                <mxCell id="32" value="" style="rounded=1;whiteSpace=wrap;html=1;fontSize=51;fontFamily=Times New Roman;fillColor=#b0e3e6;strokeColor=default;fontColor=#000000;strokeWidth=3;" parent="1" vertex="1">
                    <mxGeometry x="600.6969999998723" y="100" width="181.37399999984538" height="100" as="geometry"/>
                </mxCell>
                <mxCell id="33" value="" style="rounded=1;whiteSpace=wrap;html=1;fontSize=51;fontFamily=Times New Roman;fillColor=#b0e3e6;strokeColor=default;fontColor=#000000;strokeWidth=3;" parent="1" vertex="1">
                    <mxGeometry x="793.718999999804" y="100" width="189.27700000004322" height="100" as="geometry"/>
                </mxCell>
                <mxCell id="34" value="" style="rounded=1;whiteSpace=wrap;html=1;fontSize=51;fontFamily=Times New Roman;fillColor=#b0e3e6;strokeColor=default;fontColor=#000000;strokeWidth=3;" parent="1" vertex="1">
                    <mxGeometry x="985.2679999999837" y="100" width="187.9339999999452" height="100" as="geometry"/>
                </mxCell>
                <mxCell id="35" value="" style="rounded=1;whiteSpace=wrap;html=1;fontSize=51;fontFamily=Times New Roman;fillColor=#b0e3e6;strokeColor=default;fontColor=#000000;strokeWidth=3;" parent="1" vertex="1">
                    <mxGeometry x="1176.817999999802" y="100" width="184.95800000017937" height="100" as="geometry"/>
                </mxCell>
                <mxCell id="36" value="" style="rounded=1;whiteSpace=wrap;html=1;fontSize=51;fontFamily=Times New Roman;fillColor=#b0e3e6;strokeColor=default;fontColor=#000000;strokeWidth=3;" parent="1" vertex="1">
                    <mxGeometry x="1368.1759999997212" y="100" width="181.95000000043038" height="100" as="geometry"/>
                </mxCell>
                <mxCell id="37" value="" style="rounded=1;whiteSpace=wrap;html=1;fontSize=51;fontFamily=Times New Roman;fillColor=#b0e3e6;strokeColor=default;fontColor=#000000;strokeWidth=3;" parent="1" vertex="1">
                    <mxGeometry x="1561.7099999998275" y="100" width="112.76599999998638" height="100" as="geometry"/>
                </mxCell>
                <mxCell id="39" value="" style="edgeStyle=segmentEdgeStyle;endArrow=classic;html=1;curved=0;rounded=0;endSize=8;startSize=8;strokeWidth=10;startArrow=classic;startFill=1;" parent="1" edge="1">
                    <mxGeometry width="50" height="50" relative="1" as="geometry">
                        <mxPoint x="1990" y="280" as="sourcePoint"/>
                        <mxPoint x="-80" y="-90" as="targetPoint"/>
                    </mxGeometry>
                </mxCell>
                <mxCell id="40" value="Kernel" style="text;strokeColor=none;fillColor=none;html=1;fontSize=51;fontStyle=1;verticalAlign=middle;align=center;fontFamily=Times New Roman;" parent="1" vertex="1">
                    <mxGeometry x="-330" y="-90" width="200" height="80" as="geometry"/>
                </mxCell>
                <mxCell id="41" value="Time" style="text;strokeColor=none;fillColor=none;html=1;fontSize=51;fontStyle=1;verticalAlign=middle;align=center;fontFamily=Times New Roman;" parent="1" vertex="1">
                    <mxGeometry x="1868" y="300" width="200" height="80" as="geometry"/>
                </mxCell>
                <mxCell id="42" value="vec_add" style="text;strokeColor=none;fillColor=none;html=1;fontSize=51;fontStyle=0;verticalAlign=middle;align=center;fontFamily=Courier New;" parent="1" vertex="1">
                    <mxGeometry x="1780" y="10" width="200" height="80" as="geometry"/>
                </mxCell>
                <mxCell id="43" value="matrix_mul" style="text;strokeColor=none;fillColor=none;html=1;fontSize=51;fontStyle=0;verticalAlign=middle;align=center;fontFamily=Courier New;" parent="1" vertex="1">
                    <mxGeometry x="1780" y="110" width="200" height="80" as="geometry"/>
                </mxCell>
                <mxCell id="44" value="Kernel" style="text;strokeColor=none;fillColor=none;html=1;fontSize=51;fontStyle=1;verticalAlign=middle;align=center;fontFamily=Times New Roman;" parent="1" vertex="1">
                    <mxGeometry x="-330" y="-90" width="200" height="80" as="geometry"/>
                </mxCell>
                <mxCell id="45" value="" style="edgeStyle=segmentEdgeStyle;endArrow=classic;html=1;curved=0;rounded=0;endSize=8;startSize=8;strokeWidth=10;startArrow=classic;startFill=1;" parent="1" edge="1">
                    <mxGeometry width="50" height="50" relative="1" as="geometry">
                        <mxPoint x="1990" y="280" as="sourcePoint"/>
                        <mxPoint x="-80" y="-90" as="targetPoint"/>
                    </mxGeometry>
                </mxCell>
                <mxCell id="46" value="" style="endArrow=none;dashed=1;html=1;strokeWidth=5;" edge="1" parent="1">
                    <mxGeometry width="50" height="50" relative="1" as="geometry">
                        <mxPoint y="280" as="sourcePoint"/>
                        <mxPoint y="-40" as="targetPoint"/>
                    </mxGeometry>
                </mxCell>
                <mxCell id="47" value="$$t_0$$" style="text;html=1;strokeColor=none;fillColor=none;align=center;verticalAlign=middle;whiteSpace=wrap;rounded=0;fontSize=54;" vertex="1" parent="1">
                    <mxGeometry x="-70" y="300" width="158.9" height="80" as="geometry"/>
                </mxCell>
            </root>
        </mxGraphModel>
    </diagram>
</mxfile>